<svg width="24" height="24" viewBox="0 0 24 24" fill="none" xmlns="http://www.w3.org/2000/svg">
<path fill-rule="evenodd" clip-rule="evenodd" d="M18.52 9.60636L19.9764 18.472C20.0595 18.9751 19.9207 19.4932 19.5977 19.8828C19.2738 20.2721 18.799 20.5 18.2981 20.5H5.7028C5.2019 20.5 4.72703 20.2721 4.40322 19.8828C4.07978 19.4939 3.94064 18.9765 4.0234 18.4739L5.47945 9.6071C5.61642 8.77116 6.32656 8.1595 7.15849 8.1595H9.34673C9.09014 7.70397 8.94341 7.17626 8.94341 6.61431C8.94341 4.89715 10.3145 3.5 11.9997 3.5C13.6853 3.5 15.056 4.89715 15.056 6.61431C15.056 7.17626 14.9093 7.70397 14.6527 8.1595H16.8409C17.6725 8.1595 18.383 8.77043 18.52 9.60636ZM13.2758 6.61468C13.2758 5.89769 12.7034 5.31438 12.0001 5.31438C11.2964 5.31438 10.724 5.89732 10.724 6.61431C10.724 7.3313 11.2964 7.91461 12.0001 7.91461C12.7034 7.91461 13.2758 7.33167 13.2758 6.61468Z" fill="#94A3B8"/>
</svg>
